<svg width="160" height="38" viewBox="0 0 160 38" fill="none" xmlns="http://www.w3.org/2000/svg">
<path d="M37.445 31.6349C32.475 31.6349 27.075 30.6399 29.41 21.9199L35.14 0.494863H43.48L37.7 22.2299C36.91 25.3499 38.74 25.7849 40.85 25.7849H48.055L54.84 0.489863H63.205L54.875 31.6349H37.445Z" fill="white"/>
<path d="M77.16 25.7849C80.435 25.7849 82.155 24.8199 82.715 22.9199C83.375 20.6999 82.52 18.9249 79.315 18.9249H73.735C71.595 18.9249 69.57 18.5749 68.03 17.8799C65.07 16.5449 63.43 13.5549 64.26 9.72986C65.49 4.04486 70.19 0.484863 77.695 0.484863H95.88L94.3 6.33486H77.725C75.165 6.33486 72.995 7.52486 72.51 9.82486C72.1 11.7899 73.54 13.1299 75.135 13.1299H80.47C89.24 13.1299 91.955 17.9449 91.17 22.3899C90.23 27.7249 86.565 31.6249 76.975 31.6249H58.395L59.97 25.7749H77.16V25.7849Z" fill="white"/>
<path d="M100.025 31.6349L108.355 0.494863H99.99L91.66 31.6349H100.025Z" fill="white"/>
<path d="M149.495 0.489863H134.83L133.3 6.27986H146.11C151.025 6.27986 151.96 7.89986 150.77 11.9149L150.445 13.1349H139.185C136.54 13.1349 134.615 13.2299 132.555 13.8599C132.555 13.8599 134.42 18.2449 130.81 21.5149C129.555 22.6499 123.875 26.4099 123.875 26.4099L123.905 26.9499C124.38 30.1099 126.91 31.6299 131.435 31.6299H153.68L158.9 12.1199C160.87 5.04486 158.33 0.489863 149.495 0.489863ZM147.025 25.7849H136.46C134.635 25.7849 132.165 24.9249 132.785 22.4099C133.355 20.0949 135.315 18.9249 138.8 18.9249H148.855L147.025 25.7849Z" fill="white"/>
<path d="M22.495 0.494863L17.025 21.0799C15.55 26.3649 14.43 28.2899 12.4 29.7749C10.405 31.2349 8.69997 31.6699 3.71997 31.6349H2.02997L0.469971 37.4799H3.17497C4.37997 37.4799 7.36497 37.6049 10.5 37.3149C10.95 37.2749 11.405 37.2249 11.855 37.1649C16.69 36.3849 20.725 33.2299 22.73 28.9299C22.895 28.5599 23.055 28.1749 23.21 27.7749C23.945 25.9149 24.64 23.6949 25.375 21.0149L30.855 0.494863H22.495Z" fill="white"/>
<path d="M128.275 10.4951L118.525 0.495117H108.335L123.595 16.1351L99.5249 31.6401H113.05C113.05 31.6401 127.415 22.3501 128.585 21.5451C130.54 20.1951 131.56 18.5001 131.56 16.3001C131.555 14.3701 130.63 12.9301 128.275 10.4951Z" fill="#F9BE00"/>
</svg>
